{"asset":{"version":"2.0","generator":"Plane Stage 8 test table"},"scene":0,"scenes":[{"nodes":[0,1,2,3,4]}],"nodes":[{"mesh":0,"translation":[0,0.9,0],"scale":[1,0.1,1],"name":"top"},{"mesh":0,"translation":[0.08,0,0.08],"scale":[0.08,0.9,0.08],"name":"leg-a"},{"mesh":0,"translation":[0.84,0,0.08],"scale":[0.08,0.9,0.08],"name":"leg-b"},{"mesh":0,"translation":[0.08,0,0.84],"scale":[0.08,0.9,0.08],"name":"leg-c"},{"mesh":0,"translation":[0.84,0,0.84],"scale":[0.08,0.9,0.08],"name":"leg-d"}],"meshes":[{"primitives":[{"attributes":{"POSITION":1},"indices":0}]}],"accessors":[{"bufferView":0,"componentType":5123,"count":36,"type":"SCALAR"},{"bufferView":1,"componentType":5126,"count":8,"type":"VEC3","min":[0,0,0],"max":[1,1,1]}],"bufferViews":[{"buffer":0,"byteOffset":0,"byteLength":72,"target":34963},{"buffer":0,"byteOffset":72,"byteLength":96,"target":34962}],"buffers":[{"byteLength":168,"uri":"data:application/octet-stream;base64,"}]}